<svg width="1655" height="431" viewBox="0 0 1655 431" fill="none" xmlns="http://www.w3.org/2000/svg">
<path d="M1573.82 361H1597.41L1613.63 400.545H1614.45L1630.68 361H1654.27V430.818H1635.72V390.455H1635.18L1619.63 430.273H1608.45L1592.91 390.182H1592.36V430.818H1573.82V361Z" fill="black"/>
<path d="M1506 376.273V361H1566.68V376.273H1545.68V430.818H1527V376.273H1506Z" fill="black"/>
<path d="M354.305 298.2H233.105V339.6C233.105 349.2 235.705 356.6 240.905 361.8C246.505 367 253.905 369.6 263.105 369.6C274.705 369.6 282.305 366.2 285.905 359.4C289.905 352.6 292.305 345.8 293.105 339H354.305C354.305 365.8 346.105 387.4 329.705 403.8C321.705 412.2 312.105 418.8 300.905 423.6C289.705 428.4 277.105 430.8 263.105 430.8C243.905 430.8 227.505 426.8 213.905 418.8C200.705 410.8 190.505 400.2 183.305 387C178.905 379 175.905 369.8 174.305 359.4C172.705 349 171.905 337.6 171.905 325.2V225C171.905 212.6 172.705 201.2 174.305 190.8C175.905 180.4 178.905 171.2 183.305 163.2C190.505 150 200.705 139.4 213.905 131.4C227.505 123.4 243.905 119.4 263.105 119.4C277.105 119.4 289.705 121.8 300.905 126.6C312.505 131.4 322.305 138 330.305 146.4C346.305 164.4 354.305 187 354.305 214.2V298.2ZM233.105 250.2H293.105V215.4C293.105 203.8 290.305 195.2 284.705 189.6C279.505 183.6 272.305 180.6 263.105 180.6C253.905 180.6 246.505 183.6 240.905 189.6C235.705 195.2 233.105 203.8 233.105 215.4V250.2Z" fill="black"/>
<path d="M564.375 298.2H443.175V339.6C443.175 349.2 445.775 356.6 450.975 361.8C456.575 367 463.975 369.6 473.175 369.6C484.775 369.6 492.375 366.2 495.975 359.4C499.975 352.6 502.375 345.8 503.175 339H564.375C564.375 365.8 556.175 387.4 539.775 403.8C531.775 412.2 522.175 418.8 510.975 423.6C499.775 428.4 487.175 430.8 473.175 430.8C453.975 430.8 437.575 426.8 423.975 418.8C410.775 410.8 400.575 400.2 393.375 387C388.975 379 385.975 369.8 384.375 359.4C382.775 349 381.975 337.6 381.975 325.2V225C381.975 212.6 382.775 201.2 384.375 190.8C385.975 180.4 388.975 171.2 393.375 163.2C400.575 150 410.775 139.4 423.975 131.4C437.575 123.4 453.975 119.4 473.175 119.4C487.175 119.4 499.775 121.8 510.975 126.6C522.575 131.4 532.375 138 540.375 146.4C556.375 164.4 564.375 187 564.375 214.2V298.2ZM443.175 250.2H503.175V215.4C503.175 203.8 500.375 195.2 494.775 189.6C489.575 183.6 482.375 180.6 473.175 180.6C463.975 180.6 456.575 183.6 450.975 189.6C445.775 195.2 443.175 203.8 443.175 215.4V250.2Z" fill="black"/>
<path d="M894.75 123V427.2H833.55V397.8H832.35C825.95 407.4 818.15 415.4 808.95 421.8C800.15 427.8 788.75 430.8 774.75 430.8C767.15 430.8 759.55 429.6 751.95 427.2C744.35 424.4 737.55 420 731.55 414C725.55 408 720.75 400.4 717.15 391.2C713.55 381.6 711.75 370 711.75 356.4V123H772.95V333.6C772.95 344.8 775.55 353.6 780.75 360C785.95 366.4 793.35 369.6 802.95 369.6C814.55 369.6 822.55 366 826.95 358.8C831.35 351.6 833.55 341.2 833.55 327.6V123H894.75Z" fill="black"/>
<path d="M932.953 427.2V123H994.153V152.4H995.353C1001.75 142.8 1009.35 135 1018.15 129C1027.35 122.6 1038.95 119.4 1052.95 119.4C1060.55 119.4 1068.15 120.8 1075.75 123.6C1083.35 126 1090.15 130.2 1096.15 136.2C1102.15 142.2 1106.95 150 1110.55 159.6C1114.15 168.8 1115.95 180.2 1115.95 193.8V427.2H1054.75V216.6C1054.75 205.4 1052.15 196.6 1046.95 190.2C1041.75 183.8 1034.35 180.6 1024.75 180.6C1013.15 180.6 1005.15 184.2 1000.75 191.4C996.353 198.6 994.153 209 994.153 222.6V427.2H932.953Z" fill="black"/>
<path d="M1331.16 298.2H1209.96V339.6C1209.96 349.2 1212.56 356.6 1217.76 361.8C1223.36 367 1230.76 369.6 1239.96 369.6C1251.56 369.6 1259.16 366.2 1262.76 359.4C1266.76 352.6 1269.16 345.8 1269.96 339H1331.16C1331.16 365.8 1322.96 387.4 1306.56 403.8C1298.56 412.2 1288.96 418.8 1277.76 423.6C1266.56 428.4 1253.96 430.8 1239.96 430.8C1220.76 430.8 1204.36 426.8 1190.76 418.8C1177.56 410.8 1167.36 400.2 1160.16 387C1155.76 379 1152.76 369.8 1151.16 359.4C1149.56 349 1148.76 337.6 1148.76 325.2V225C1148.76 212.6 1149.56 201.2 1151.16 190.8C1152.76 180.4 1155.76 171.2 1160.16 163.2C1167.36 150 1177.56 139.4 1190.76 131.4C1204.36 123.4 1220.76 119.4 1239.96 119.4C1253.96 119.4 1266.56 121.8 1277.76 126.6C1289.36 131.4 1299.16 138 1307.16 146.4C1323.16 164.4 1331.16 187 1331.16 214.2V298.2ZM1209.96 250.2H1269.96V215.4C1269.96 203.8 1267.16 195.2 1261.56 189.6C1256.36 183.6 1249.16 180.6 1239.96 180.6C1230.76 180.6 1223.36 183.6 1217.76 189.6C1212.56 195.2 1209.96 203.8 1209.96 215.4V250.2Z" fill="black"/>
<path d="M1364.23 427.2V123H1425.43V155.4C1437.83 144.2 1450.03 135.4 1462.03 129C1474.03 122.6 1488.83 119.4 1506.43 119.4V184.2C1500.43 181.8 1494.23 180.6 1487.83 180.6C1481.43 180.6 1474.43 181.8 1466.83 184.2C1459.63 186.2 1453.03 189.8 1447.03 195C1440.63 200.2 1435.43 207 1431.43 215.4C1427.43 223.8 1425.43 234.2 1425.43 246.6V427.2H1364.23Z" fill="black"/>
<path d="M736.8 58.2C711.8 58.2 665.8 117.2 665.8 170.7V427.2H605.8V170.7C605.8 117.2 559.8 58.2 534.8 58.2V0.200007H736.8V58.2Z" fill="black"/>
<path d="M202.8 58.2C177.8 58.2 131.8 117.2 131.8 170.7V427.2H71.8V170.7C71.8 117.2 25.8 58.2 0.8 58.2V0.200007H202.8V58.2Z" fill="black"/>
</svg>
